<?xml version="1.0" standalone="no"?><!DOCTYPE svg PUBLIC "-//W3C//DTD SVG 1.1//EN" "http://www.w3.org/Graphics/SVG/1.1/DTD/svg11.dtd"><svg t="1632656797443" class="icon" viewBox="0 0 1024 1024" version="1.1" xmlns="http://www.w3.org/2000/svg" p-id="6949" xmlns:xlink="http://www.w3.org/1999/xlink" width="200" height="200"><defs><style type="text/css"></style></defs><path d="M748.034273 709.083657l209.590505 1.498121c0-109.090581-53.345975-265.148869-191.627388-265.14887-73.783447 0-114.829282 38.08541-146.035004 91.313706 63.431681 31.874965 101.527324 103.193267 128.071887 172.337043zM765.998413 162.557306c-38.791491 0-73.845869 15.980973-98.957803 41.709961 25.303292 32.582069 40.376593 73.506131 40.376593 117.953435 0 32.739659-8.184403 63.564711-22.602787 90.557482 22.798239 16.564257 50.847062 26.339902 81.183997 26.339902 76.371388 0 138.281413-61.910025 138.281413-138.279367 0-76.371388-61.910025-138.281413-138.281413-138.281413z" fill="#cc2105" p-id="6950"></path><path d="M244.762051 708.061374l-209.590505 1.498121c0-109.090581 53.345975-265.148869 191.627388-265.148869 73.783447 0 114.829282 38.08541 146.035005 91.313705-63.431681 31.874965-101.527324 103.193267-128.071888 172.337043zM226.797911 161.535023c38.791491 0 73.845869 15.980973 98.957803 41.709961-25.303292 32.582069-40.376593 73.506131-40.376593 117.953435 0 32.739659 8.184403 63.564711 22.602787 90.557482-22.798239 16.564257-50.847062 26.339902-81.183997 26.339902-76.371388 0-138.281413-61.910025-138.281413-138.279367 0-76.371388 61.910025-138.281413 138.281413-138.281413z" fill="#cc2105" p-id="6951"></path><path d="M235.001757 888.627846c0-151.851477 68.170612-365.312126 260.653485-365.312126 192.483896 0 266.739087 217.228463 266.739087 369.07994" fill="#cc2105" p-id="6952"></path><path d="M495.656265 322.042647m-192.482873 0a192.482873 192.482873 0 1 0 384.965746 0 192.482873 192.482873 0 1 0-384.965746 0Z" fill="#cc2105" p-id="6953"></path></svg>