<?xml version="1.0" standalone="no"?><!DOCTYPE svg PUBLIC "-//W3C//DTD SVG 1.1//EN" "http://www.w3.org/Graphics/SVG/1.1/DTD/svg11.dtd"><svg t="1632657556534" class="icon" viewBox="0 0 1024 1024" version="1.1" xmlns="http://www.w3.org/2000/svg" p-id="1645" xmlns:xlink="http://www.w3.org/1999/xlink" width="200" height="200"><defs><style type="text/css"></style></defs><path d="M128 504.96c29.44 43.68 132.96 98.88 132.96 98.88l-98.4 1.28A204.8 204.8 0 0 0 208 660.32c35.68 34.72 135.52 65.6 135.52 65.6A730.08 730.08 0 0 1 224 793.92a518.4 518.4 0 0 1-125.28 23.2s113.92 71.2 288.8 53.92 295.52-99.52 388.64-236.32S861.12 320 861.12 320s10.24-11.68 35.04-34.56a233.12 233.12 0 0 0 32-34.08l-61.76 6.72 40.16-72.16s-24.48 11.2-41.44 17.6-39.68 12.48-39.68 12.48A192.96 192.96 0 0 0 688 150.24a181.12 181.12 0 0 0-82.4 20.8C475.2 236.48 517.44 384 517.44 384a548.8 548.8 0 0 1-243.04-63.04c-131.68-66.4-163.68-126.72-163.68-126.72s-20.32 35.84-11.36 102.72 71.84 152.64 71.84 152.64L96 419.04a204 204 0 0 0 32 85.92z" fill="#5DD7FC" p-id="1646"></path></svg>