<?xml version="1.0" standalone="no"?><!DOCTYPE svg PUBLIC "-//W3C//DTD SVG 1.1//EN" "http://www.w3.org/Graphics/SVG/1.1/DTD/svg11.dtd"><svg t="1632657578157" class="icon" viewBox="0 0 1024 1024" version="1.1" xmlns="http://www.w3.org/2000/svg" p-id="1828" xmlns:xlink="http://www.w3.org/1999/xlink" width="200" height="200"><defs><style type="text/css"></style></defs><path d="M940.64 315.2H773.92V149.28h-52.96V315.2H553.44v53.12h167.52v168.48h52.96V368.32h166.72V315.2zM241.28 608a395.04 395.04 0 0 0-46.4 11.84A203.2 203.2 0 0 0 151.36 640a128 128 0 0 0-68 108.16 103.04 103.04 0 0 0 11.52 48 117.12 117.12 0 0 0 35.2 40.32A188.8 188.8 0 0 0 189.6 864a289.6 289.6 0 0 0 83.36 10.72 314.88 314.88 0 0 0 100.16-14.72 233.28 233.28 0 0 0 72.8-38.08A161.44 161.44 0 0 0 489.92 768a135.84 135.84 0 0 0 15.04-61.28 120.16 120.16 0 0 0-22.56-72.64A154.24 154.24 0 0 0 458.56 608c-9.12-8.32-18.24-16-27.68-24.96l-32-24.8c-4.64-4.16-9.6-8.96-14.88-14.56a32.96 32.96 0 0 1-8-23.52A37.76 37.76 0 0 1 384 496c5.28-6.56 10.88-12.8 16-18.72q14.24-10.56 27.36-22.56a163.52 163.52 0 0 0 23.84-26.56 122.72 122.72 0 0 0 16.8-33.28 137.44 137.44 0 0 0 6.08-43.52 128 128 0 0 0-7.04-44.32 160.8 160.8 0 0 0-16-34.08 149.12 149.12 0 0 0-20.32-24.8 235.36 235.36 0 0 0-18.56-16h54.72l56.48-32H341.76a377.76 377.76 0 0 0-78.08 8.8 187.36 187.36 0 0 0-80 39.84A165.12 165.12 0 0 0 141.6 304 152.16 152.16 0 0 0 128 366.56a142.72 142.72 0 0 0 9.6 51.04 138.24 138.24 0 0 0 28.32 44.8 140.96 140.96 0 0 0 45.76 32 155.04 155.04 0 0 0 62.72 12h14.08a139.52 139.52 0 0 0 14.08-1.28c-2.24 5.28-4.32 10.56-6.08 16a58.56 58.56 0 0 0-2.72 19.04 64.96 64.96 0 0 0 8.32 34.24A301.76 301.76 0 0 0 320 598.88c-9.92 0-21.76 1.44-35.2 2.72a379.84 379.84 0 0 0-43.52 6.4z m74.08-126.88a75.84 75.84 0 0 1-48.96-16 135.52 135.52 0 0 1-34.4-40.32 196.64 196.64 0 0 1-20.32-51.36 219.36 219.36 0 0 1-6.56-49.6 148.16 148.16 0 0 1 4-35.84 76.96 76.96 0 0 1 42.72-52.16 77.44 77.44 0 0 1 34.4-8 75.2 75.2 0 0 1 48 16 137.6 137.6 0 0 1 34.88 41.28 204.64 204.64 0 0 1 21.12 53.12 214.72 214.72 0 0 1 7.04 52.32 166.88 166.88 0 0 1-3.52 31.04 64 64 0 0 1-18.4 33.76 90.24 90.24 0 0 1-27.04 17.76 83.04 83.04 0 0 1-32.96 7.84z m1.76 144h23.36a53.76 53.76 0 0 1 9.28 0.96c16 11.84 30.88 22.4 43.2 32a215.2 215.2 0 0 1 29.92 27.52 103.68 103.68 0 0 1 17.28 27.04 78.72 78.72 0 0 1 5.76 30.56 85.12 85.12 0 0 1-33.12 68.8q-33.12 27.2-96 27.04a191.04 191.04 0 0 1-113.28-30.08 92.32 92.32 0 0 1-41.92-78.08 78.24 78.24 0 0 1 9.28-40 103.36 103.36 0 0 1 46.72-42.88c8.48-3.84 15.2-6.72 19.84-8.48 9.44-2.88 19.2-5.44 29.12-7.52s19.52-3.52 28.32-4.48 15.68-3.52 22.24-3.52z" fill="#ffffff" p-id="1829"></path></svg>